<?xml version="1.0" standalone="no"?>
<!DOCTYPE svg PUBLIC "-//W3C//DTD SVG 20010904//EN"
 "http://www.w3.org/TR/2001/REC-SVG-20010904/DTD/svg10.dtd">
<svg version="1.0" xmlns="http://www.w3.org/2000/svg"
 width="1919.000000pt" height="1164.000000pt" viewBox="0 0 1919.000000 1164.000000"
 preserveAspectRatio="xMidYMid meet">

<g transform="translate(0.000000,1164.000000) scale(0.100000,-0.100000)"
fill="#ffffff" stroke="none">
<path d="M14909 10092 c-26 -20 -75 -58 -110 -83 -35 -25 -154 -110 -264 -190
-110 -80 -306 -221 -435 -314 -129 -93 -271 -195 -315 -227 -71 -52 -201 -145
-516 -373 -53 -38 -148 -107 -210 -152 -63 -45 -233 -167 -379 -272 -146 -106
-341 -247 -435 -314 -93 -67 -215 -155 -270 -195 -55 -40 -127 -92 -160 -115
-33 -24 -125 -90 -204 -148 -79 -57 -181 -131 -227 -164 -46 -33 -143 -103
-215 -155 -131 -95 -307 -222 -435 -314 -38 -27 -100 -73 -139 -101 -90 -66
-463 -336 -608 -440 -62 -44 -128 -92 -147 -106 -19 -14 -188 -136 -375 -271
-187 -134 -392 -282 -455 -328 -169 -123 -225 -163 -325 -235 -49 -35 -126
-91 -170 -122 -87 -64 -258 -187 -373 -270 -64 -46 -77 -51 -95 -42 -37 20
-336 196 -752 444 -93 56 -208 124 -255 152 -267 157 -595 352 -660 391 -72
43 -247 148 -525 312 -71 42 -204 121 -295 175 -195 116 -423 251 -465 275
-59 35 -353 209 -565 335 -118 70 -253 150 -299 177 -46 27 -97 58 -112 69
-15 10 -30 19 -33 19 -4 0 -23 11 -44 24 -31 20 -201 121 -622 369 -47 28
-128 76 -180 107 -140 83 -549 326 -835 495 -137 81 -294 175 -348 208 -54 33
-100 57 -103 54 -3 -2 37 -68 88 -145 51 -78 152 -232 223 -342 381 -589 921
-1388 1213 -1795 145 -201 349 -432 677 -763 283 -288 461 -455 452 -427 -7
25 -92 265 -145 410 -44 123 -195 497 -237 590 -15 33 -65 138 -111 233 -46
95 -84 179 -84 186 0 44 29 32 280 -118 421 -252 654 -390 675 -402 20 -11
199 -117 390 -231 55 -32 168 -99 250 -148 83 -48 182 -107 220 -130 39 -23
120 -71 180 -107 174 -103 791 -469 1008 -599 109 -66 202 -119 208 -119 5 0
9 -9 9 -20 0 -17 -6 -19 -62 -15 -35 3 -180 9 -323 15 -143 5 -372 15 -510 20
-257 10 -652 24 -995 36 -107 3 -193 4 -190 2 3 -3 84 -45 180 -95 202 -104
596 -310 720 -375 47 -25 144 -76 215 -113 72 -37 157 -82 190 -100 33 -18
132 -69 220 -115 88 -45 196 -102 240 -125 44 -23 148 -77 230 -120 83 -43
191 -99 240 -125 50 -26 162 -85 250 -130 88 -46 192 -100 230 -120 74 -40
218 -115 430 -225 72 -37 153 -80 180 -95 28 -15 122 -65 210 -110 169 -87
545 -283 730 -380 61 -31 147 -76 193 -100 45 -23 82 -46 82 -50 0 -9 -78 -36
-535 -185 -198 -65 -434 -142 -525 -172 l-165 -55 -70 17 c-38 10 -162 43
-275 75 -113 31 -304 85 -425 118 -121 34 -310 87 -420 117 -110 31 -247 69
-305 85 -58 16 -163 45 -235 65 -71 20 -152 43 -180 50 -27 8 -106 29 -175 49
-69 19 -240 66 -380 105 -140 39 -271 75 -290 81 -19 5 -91 25 -160 44 -69 19
-224 63 -345 97 -121 34 -247 68 -280 76 -78 20 -95 35 -70 63 10 11 26 20 36
20 72 0 646 132 934 215 88 25 183 52 210 60 159 46 206 62 206 71 0 12 -180
45 -726 134 -105 17 -300 40 -468 55 -371 33 -1397 12 -2662 -55 -215 -11
-489 -25 -805 -40 -118 -6 -294 -15 -390 -20 -96 -5 -239 -12 -318 -16 -155
-7 -177 -18 -79 -41 48 -11 123 -31 377 -103 35 -10 417 -116 760 -211 102
-28 199 -55 215 -60 17 -5 118 -34 225 -63 107 -30 312 -87 455 -126 316 -88
523 -146 590 -165 78 -22 351 -97 560 -155 105 -28 228 -63 275 -76 47 -13
101 -29 120 -34 19 -5 82 -23 140 -39 58 -16 213 -59 345 -96 132 -36 294 -81
360 -100 66 -18 203 -57 305 -85 393 -109 503 -140 730 -203 129 -36 343 -96
475 -132 132 -36 341 -95 465 -129 244 -69 355 -100 760 -211 146 -41 323 -90
393 -109 l128 -36 67 21 c59 19 498 162 822 269 63 21 345 113 625 204 281 92
520 172 533 179 18 8 28 8 42 -1 11 -7 86 -46 167 -88 82 -42 180 -93 218
-114 133 -72 269 -143 595 -312 74 -39 158 -83 185 -98 28 -15 131 -69 230
-120 99 -51 261 -136 360 -188 99 -52 239 -125 310 -162 181 -94 284 -149 323
-172 19 -12 37 -17 42 -12 4 5 -5 36 -21 69 -16 33 -38 83 -50 110 -12 28 -41
92 -65 143 -24 52 -44 95 -44 97 0 2 -15 36 -34 77 -77 167 -101 218 -146 318
-26 58 -62 137 -80 175 -33 72 -61 133 -106 233 -96 212 -121 267 -161 352
-25 52 -52 113 -61 135 -9 22 -22 51 -29 65 -11 21 -11 27 3 36 8 7 108 42
222 79 114 37 266 86 337 110 131 44 510 168 1280 420 231 75 512 168 625 205
113 37 394 129 625 205 231 75 472 154 535 175 63 21 277 90 475 155 198 64
369 120 380 125 21 8 770 253 953 312 56 18 102 36 102 40 0 5 -37 8 -82 8
-46 0 -195 5 -333 10 -274 11 -662 25 -1080 40 -148 5 -391 14 -540 20 -148 5
-398 14 -555 20 -157 5 -404 14 -550 20 -146 5 -393 14 -550 20 -157 6 -388
15 -515 20 -126 5 -376 14 -555 20 -179 6 -435 15 -570 20 -135 5 -404 15
-599 22 -255 8 -354 15 -358 24 -4 11 19 49 152 254 34 52 86 133 117 180 30
47 159 247 288 445 128 198 258 398 288 445 30 47 71 110 92 140 21 30 69 105
107 165 62 98 331 514 481 745 135 208 168 259 317 490 87 135 192 297 233
360 41 63 95 147 120 185 25 39 73 113 107 165 35 52 125 192 200 310 76 118
195 303 265 410 70 107 227 350 350 540 123 190 261 402 307 473 103 159 105
165 22 99z m-2459 -2626 c0 -7 -23 -49 -52 -92 -56 -85 -266 -408 -505 -779
-81 -126 -205 -317 -275 -425 -69 -107 -180 -278 -246 -380 -193 -300 -486
-753 -596 -922 -55 -86 -106 -159 -111 -161 -6 -3 -116 -1 -245 4 -129 5 -363
13 -520 19 -157 6 -397 14 -535 20 -137 5 -339 12 -447 16 -151 5 -198 10
-198 20 0 7 30 34 68 59 37 25 117 82 177 126 61 44 173 126 250 181 152 110
240 174 315 228 27 19 102 73 167 120 65 46 134 96 153 110 38 29 85 63 490
355 151 109 298 215 325 235 28 20 131 95 230 166 99 72 276 200 393 284 310
225 303 220 394 284 45 32 128 92 183 132 292 214 571 414 578 414 4 0 7 -6 7
-14z m-3980 -3346 c522 -19 1051 -38 1650 -60 168 -7 393 -15 500 -18 l195 -7
27 -55 c15 -30 82 -174 148 -320 121 -265 159 -348 245 -534 25 -54 44 -100
42 -102 -5 -6 -153 -56 -419 -143 l-246 -80 -109 58 c-59 32 -184 97 -278 146
-93 48 -253 131 -355 185 -102 54 -237 124 -300 157 -258 135 -339 177 -425
223 -49 26 -157 82 -240 125 -82 43 -190 99 -240 125 -238 126 -518 270 -525
270 -14 0 -32 29 -25 40 4 6 19 9 33 6 15 -3 160 -11 322 -16z m3645 -135
c226 -8 608 -22 850 -30 242 -9 546 -20 675 -25 129 -5 252 -10 273 -10 59 0
47 -26 -20 -45 -61 -18 -348 -111 -693 -225 -113 -37 -394 -130 -625 -205
-231 -75 -473 -155 -538 -177 -66 -22 -120 -38 -121 -36 -1 2 -21 44 -43 93
-23 50 -62 134 -87 188 -26 55 -46 100 -46 102 0 2 -18 43 -41 92 -113 246
-129 285 -124 294 3 4 34 6 68 3 34 -2 247 -11 472 -19z m-529 -1626 c19 -38
23 -54 15 -62 -9 -9 -16 -8 -29 0 -9 7 -36 21 -60 32 -52 25 -53 48 -2 66 19
7 38 13 42 14 4 0 19 -22 34 -50z"/>
</g>
</svg>
